<?xml version="1.0" standalone="no"?>
<!DOCTYPE svg PUBLIC "-//W3C//DTD SVG 20010904//EN"
 "http://www.w3.org/TR/2001/REC-SVG-20010904/DTD/svg10.dtd">
<svg version="1.0" xmlns="http://www.w3.org/2000/svg"
 width="2880.000000pt" height="1642.000000pt" viewBox="0 0 2880.000000 1642.000000"
 preserveAspectRatio="xMidYMid meet">
<metadata>
Created by potrace 1.16, written by Peter Selinger 2001-2019
</metadata>
<g transform="translate(0.000000,1642.000000) scale(0.100000,-0.100000)"
fill="#000000" stroke="none">
<path d="M16660 13200 c-569 -48 -951 -193 -1225 -465 -120 -119 -183 -205
-248 -335 -17 -36 -36 -68 -42 -72 -5 -4 -7 -8 -3 -8 3 0 -3 -24 -14 -52 -54
-140 -77 -284 -73 -453 4 -154 16 -229 56 -350 73 -218 198 -390 404 -554 38
-31 72 -58 75 -61 10 -10 161 -100 168 -100 4 0 23 -10 42 -23 19 -12 71 -38
115 -56 44 -19 98 -42 120 -52 22 -10 94 -36 160 -59 166 -57 194 -66 245 -80
25 -7 65 -19 90 -26 42 -12 102 -27 158 -40 140 -30 346 -80 407 -98 6 -2 13
-4 18 -5 4 0 23 -7 42 -15 20 -9 36 -15 38 -15 1 0 9 -2 17 -5 8 -3 44 -15 80
-26 170 -56 307 -160 363 -274 130 -268 -29 -548 -361 -638 -116 -31 -355 -31
-470 0 -94 25 -182 62 -182 74 0 5 -4 6 -10 3 -5 -3 -10 -3 -10 2 0 4 -14 14
-31 22 -17 7 -66 49 -109 91 -64 65 -86 96 -128 182 -47 94 -86 223 -107 352
l-6 38 -112 -6 c-115 -7 -489 -31 -632 -41 -286 -19 -374 -25 -485 -31 -69 -3
-128 -9 -133 -13 -8 -8 5 -122 29 -246 63 -324 231 -643 468 -884 92 -93 99
-99 189 -158 39 -27 74 -50 77 -53 6 -6 74 -39 150 -73 186 -84 530 -161 815
-183 50 -3 101 -8 115 -10 62 -8 537 -3 650 6 403 34 734 131 995 291 79 48
225 160 276 211 38 38 143 160 174 203 l29 39 18 -109 c108 -659 511 -1247
1083 -1581 145 -85 322 -167 440 -204 22 -7 46 -17 53 -23 6 -5 12 -7 12 -3 0
3 17 -1 38 -9 99 -38 399 -97 563 -111 41 -4 76 -8 78 -10 2 -2 -32 -40 -75
-85 -103 -105 -91 -92 -163 -189 -148 -200 -262 -434 -338 -695 -19 -66 -37
-131 -39 -145 -2 -14 -9 -45 -14 -70 -75 -343 -77 -908 -4 -1285 72 -375 228
-720 444 -989 82 -101 258 -269 372 -354 53 -40 101 -72 107 -72 6 0 11 -4 11
-10 0 -5 6 -10 14 -10 8 0 16 -3 18 -8 5 -12 246 -128 318 -153 36 -12 71 -27
78 -32 6 -5 12 -7 12 -4 0 4 19 -1 43 -9 129 -46 473 -107 687 -121 167 -11
517 -7 650 6 503 52 912 207 1232 468 79 65 228 211 280 274 50 62 178 248
178 259 0 5 6 15 13 22 18 20 71 130 116 243 l41 100 0 -652 0 -653 1845 0
1845 0 0 575 0 575 -1124 0 -1124 0 -1 1723 c0 947 0 1737 0 1755 l-1 32 -717
-2 -718 -3 -5 -640 -5 -640 -19 50 c-58 154 -193 388 -299 520 -65 80 -213
235 -260 271 -184 142 -287 209 -412 266 -94 43 -178 81 -185 83 -3 0 -48 15
-100 32 -148 48 -255 74 -415 98 -55 9 -118 19 -139 23 l-39 7 74 49 c277 183
573 433 751 635 116 130 368 451 368 468 0 2 13 23 29 46 63 93 200 345 261
481 33 74 110 278 116 306 3 13 10 30 16 37 6 7 8 13 5 13 -4 0 1 19 9 42 13
36 57 212 69 273 207 1082 -196 2049 -1072 2569 -76 45 -250 131 -318 157 -27
11 -59 24 -70 29 -11 5 -45 16 -75 26 -30 9 -61 21 -67 27 -7 5 -13 7 -13 4 0
-3 -39 6 -87 19 -49 13 -99 27 -113 29 -90 18 -254 45 -300 50 -30 3 -73 8
-95 10 -79 9 -423 6 -535 -5 -456 -43 -879 -167 -1310 -386 -507 -257 -906
-579 -1297 -1046 -42 -51 -201 -276 -249 -354 -26 -43 -51 -81 -54 -84 -3 -3
-25 -43 -49 -90 -25 -47 -48 -87 -53 -88 -4 -2 -6 -7 -3 -12 3 -5 -2 -16 -11
-24 -8 -9 -13 -16 -10 -16 3 0 -11 -33 -31 -72 -20 -40 -38 -78 -39 -85 -1 -7
-14 -38 -28 -69 -14 -31 -26 -62 -26 -70 0 -38 -23 -15 -58 58 -138 285 -398
508 -782 671 -199 84 -482 175 -750 241 -58 14 -152 37 -210 51 -58 15 -118
28 -135 31 -16 3 -37 7 -45 10 -8 3 -28 8 -45 11 -16 2 -57 11 -90 20 -33 8
-71 17 -85 19 -14 3 -41 10 -60 16 -19 6 -35 10 -35 9 0 -1 -34 10 -75 24
-183 66 -272 165 -273 305 -2 156 119 283 313 331 90 23 337 17 434 -9 235
-65 385 -237 447 -516 l13 -59 140 7 c78 4 170 9 206 11 36 2 148 9 250 15
102 6 214 12 250 15 36 2 162 10 280 16 118 6 218 14 221 18 7 7 -11 125 -37
236 -69 301 -228 582 -419 739 -89 72 -239 167 -330 208 -100 45 -275 104
-369 124 -39 9 -80 17 -91 20 -27 6 -61 11 -195 30 -136 18 -676 27 -840 14z
m6220 -385 c93 -15 160 -27 170 -30 3 -1 25 -5 50 -9 62 -11 266 -71 315 -92
22 -10 42 -18 45 -19 3 -1 14 -5 25 -9 11 -5 38 -15 60 -23 67 -24 264 -131
365 -197 211 -138 301 -227 504 -494 192 -253 219 -295 278 -432 139 -322 206
-674 193 -1014 -3 -78 -7 -157 -9 -176 -2 -19 -7 -62 -11 -95 -9 -82 -52 -302
-71 -361 -8 -27 -17 -58 -19 -70 -15 -67 -95 -293 -135 -379 -16 -33 -47 -100
-70 -150 -23 -49 -44 -92 -48 -95 -4 -3 -20 -32 -37 -65 -40 -80 -180 -297
-257 -398 -221 -291 -537 -602 -798 -786 -226 -160 -378 -251 -605 -361 -503
-244 -1061 -371 -1565 -356 -153 5 -398 30 -465 48 -22 6 -56 13 -75 15 -43 6
-261 68 -304 87 -17 7 -53 22 -81 31 -83 30 -226 99 -296 143 -36 23 -70 42
-74 42 -7 0 -150 98 -183 124 -7 6 -18 16 -25 21 -7 6 -35 28 -62 50 -149 118
-353 362 -466 558 -92 159 -188 400 -231 577 -48 202 -60 299 -63 530 -4 229
3 338 31 490 8 47 19 108 24 135 5 28 14 66 19 85 6 19 23 77 37 128 26 95
100 301 127 357 8 17 30 64 48 105 18 41 36 77 39 80 3 3 25 43 49 90 57 111
182 306 273 428 62 83 179 226 197 242 3 3 30 31 59 64 29 32 92 88 140 124
48 36 260 196 471 355 403 304 437 327 603 402 381 173 829 292 1198 319 127
9 537 -3 630 -19z m95 -6236 c39 -5 81 -11 95 -13 70 -15 87 -19 110 -29 14
-5 33 -12 43 -14 67 -13 215 -114 307 -211 180 -189 267 -439 289 -834 8 -141
1 -427 -14 -558 -51 -452 -198 -724 -467 -865 -315 -166 -769 -149 -1032 39
-271 193 -403 508 -424 1011 -17 390 28 747 119 942 12 26 23 50 23 53 4 17
61 110 67 110 4 0 10 9 14 19 6 20 106 126 160 171 49 40 172 107 249 135 137
50 289 64 461 44z"/>
<path d="M22426 11693 c-257 -54 -591 -274 -768 -505 -31 -40 -62 -85 -69
-100 -7 -16 -17 -28 -22 -28 -6 0 -8 -3 -4 -6 3 -3 -3 -28 -13 -54 -28 -71
-41 -195 -29 -271 35 -220 171 -375 384 -440 48 -15 84 -18 180 -15 139 4 281
37 460 106 339 129 424 142 506 73 18 -15 40 -45 50 -68 18 -40 25 -115 12
-129 -4 -3 -8 -12 -9 -20 -4 -26 -53 -94 -91 -125 -21 -18 -67 -46 -103 -64
-57 -28 -74 -32 -145 -32 -95 1 -160 27 -240 98 l-50 44 -40 -31 c-22 -17 -46
-37 -53 -44 -8 -7 -30 -25 -50 -40 -21 -15 -42 -31 -48 -37 -6 -5 -70 -57
-142 -114 l-131 -104 30 -38 c39 -50 141 -130 206 -163 244 -123 435 -118 710
17 291 142 536 365 638 579 121 251 69 550 -131 751 -129 130 -327 182 -536
143 -118 -22 -308 -84 -518 -168 -206 -83 -276 -95 -324 -57 -31 25 -56 75
-56 113 0 30 32 95 64 128 128 133 299 153 419 48 l43 -38 164 130 c91 71 172
135 180 142 9 7 39 31 67 53 l52 41 -62 59 c-157 149 -340 207 -531 166z"/>
<path d="M20855 10651 c-55 -39 -144 -101 -198 -138 -54 -37 -122 -85 -152
-106 -30 -21 -55 -41 -55 -45 0 -7 152 -222 328 -467 226 -314 435 -611 449
-638 46 -89 64 -187 44 -239 -21 -56 -114 -117 -178 -118 -61 0 -110 29 -186
111 l-72 78 -60 -56 c-111 -106 -210 -198 -292 -274 -46 -42 -83 -81 -83 -87
0 -6 35 -46 79 -89 86 -85 93 -91 134 -112 15 -8 27 -18 27 -23 0 -4 4 -8 10
-8 5 0 36 -13 68 -28 152 -74 320 -78 492 -11 130 50 376 208 448 288 90 99
159 215 198 331 26 79 26 253 -1 335 -26 82 -129 282 -198 385 -118 176 -684
974 -693 977 -5 2 -55 -28 -109 -66z"/>
<path d="M330 10806 l0 -2326 720 0 720 0 0 945 0 945 94 0 c102 0 227 -22
263 -46 13 -8 23 -12 23 -8 0 11 94 -47 128 -80 89 -82 145 -171 352 -556 84
-157 163 -303 175 -325 12 -22 124 -231 250 -463 l227 -422 814 0 c448 0 814
3 814 6 0 9 -654 1275 -708 1369 -46 82 -95 152 -166 240 -64 79 -179 208
-205 230 -55 47 -200 127 -299 166 -59 22 -108 43 -110 44 -2 2 23 9 55 15
109 22 238 69 369 134 73 36 138 71 145 78 8 7 40 32 71 56 73 56 153 138 231
237 42 54 127 201 143 250 81 235 79 227 96 407 42 459 -131 893 -455 1138
-185 141 -393 215 -717 254 -69 8 -145 18 -170 22 -25 4 -678 9 -1452 11
l-1408 4 0 -2325z m2255 1374 c127 -12 239 -40 307 -77 101 -55 179 -191 194
-337 15 -146 -60 -315 -175 -393 -68 -45 -76 -48 -201 -76 -201 -45 -329 -56
-647 -55 l-293 0 0 474 0 474 353 0 c193 0 402 -5 462 -10z"/>
<path d="M1920 7668 c-426 -21 -747 -90 -1006 -219 -278 -137 -528 -397 -634
-658 -17 -42 -35 -85 -40 -96 -5 -11 -19 -63 -32 -115 -19 -82 -22 -122 -22
-285 0 -164 3 -201 22 -271 111 -412 369 -681 865 -905 193 -87 699 -245 882
-275 35 -6 214 -51 265 -66 46 -14 65 -19 65 -18 0 3 149 -51 190 -69 114 -50
161 -79 220 -136 272 -262 111 -671 -298 -760 -137 -30 -358 -23 -475 14 -147
48 -240 106 -335 211 -94 104 -158 248 -197 444 -11 55 -22 101 -24 103 -1 2
-140 -6 -307 -17 -167 -11 -344 -22 -394 -25 -49 -3 -119 -7 -155 -10 -81 -6
-188 -13 -305 -20 -49 -3 -116 -8 -148 -11 l-58 -6 6 -47 c49 -372 159 -659
351 -918 79 -105 217 -249 291 -302 57 -42 222 -136 255 -146 13 -4 41 -16 63
-26 106 -48 390 -118 580 -143 210 -27 278 -31 600 -31 377 1 480 9 730 62
262 54 527 166 713 299 87 63 250 215 299 280 64 83 93 126 133 193 44 74 44
74 59 50 48 -72 186 -236 270 -319 89 -88 252 -219 311 -250 14 -7 27 -16 30
-19 8 -10 219 -108 295 -136 69 -26 187 -62 235 -71 14 -3 45 -10 70 -15 25
-6 54 -12 65 -14 86 -16 147 -25 190 -30 28 -3 64 -7 80 -10 150 -21 628 -25
805 -6 457 49 795 180 1084 419 81 67 210 197 246 248 86 122 112 161 155 234
28 47 59 104 69 128 11 23 24 42 29 42 6 0 8 2 5 5 -3 3 14 50 37 103 45 101
97 255 119 352 l14 57 -62 18 c-33 10 -97 29 -141 43 -44 14 -85 27 -92 28 -6
1 -27 7 -45 12 -18 6 -73 23 -123 37 -49 15 -142 43 -205 63 -63 20 -121 37
-128 38 -12 2 -161 47 -212 64 -31 10 -173 53 -180 54 -3 1 -11 5 -17 9 -7 5
-13 6 -13 2 0 -3 -9 -1 -19 4 -17 10 -21 4 -36 -62 -34 -137 -122 -371 -148
-388 -5 -3 -7 -8 -5 -11 8 -12 -104 -169 -162 -228 -80 -81 -192 -141 -328
-177 -86 -23 -116 -26 -272 -27 -139 0 -187 3 -235 17 -33 10 -67 19 -75 21
-52 13 -136 52 -186 87 -238 165 -354 432 -393 909 -13 159 -13 423 -1 572 12
139 54 376 71 393 5 5 9 17 9 28 0 10 16 55 35 99 111 252 317 433 570 499
115 30 324 37 436 14 301 -60 528 -270 625 -577 10 -32 22 -58 27 -58 11 0
1222 267 1248 276 15 4 12 16 -18 97 -80 214 -210 454 -336 622 -67 89 -266
291 -340 345 -26 19 -54 41 -62 48 -7 6 -17 12 -22 12 -5 0 -26 12 -47 27
-154 104 -450 207 -726 252 -387 63 -863 57 -1218 -15 -571 -115 -1021 -401
-1312 -834 -34 -50 -65 -88 -69 -85 -5 2 -12 17 -16 32 -10 41 -72 176 -113
246 -102 174 -283 348 -469 450 -340 187 -864 275 -1463 245z m260 -872 c56
-9 108 -19 114 -24 6 -4 29 -14 51 -21 159 -54 293 -228 347 -450 l23 -93 120
6 c66 4 152 9 190 11 39 3 151 9 250 15 327 18 359 20 443 26 45 4 82 4 82 2
0 -2 -12 -42 -26 -89 -26 -87 -30 -103 -40 -154 -3 -16 -9 -48 -14 -70 -14
-65 -40 -252 -47 -334 -3 -42 -8 -79 -12 -83 -6 -7 -100 48 -113 67 -4 5 -8 6
-8 1 0 -5 -6 -3 -14 3 -15 13 -191 101 -201 101 -3 0 -27 9 -53 21 -26 12 -56
25 -67 29 -164 69 -841 253 -1185 321 -265 53 -436 142 -489 254 -36 77 -25
226 21 274 10 11 18 24 18 29 0 9 61 62 109 94 41 28 147 60 224 67 133 12
174 12 277 -3z"/>
<path d="M16245 7669 c-714 -58 -1282 -342 -1645 -825 -41 -54 -77 -101 -80
-104 -3 -3 -14 -22 -25 -42 -11 -21 -23 -38 -27 -38 -5 0 -7 -3 -6 -7 3 -10
-50 -113 -68 -134 -8 -9 -17 -26 -19 -39 -2 -12 -13 -36 -24 -53 l-21 -32 0
603 0 602 -720 0 -720 0 0 -82 c-1 -46 -1 -413 -1 -815 l0 -733 -789 0 -790 0
0 815 0 815 -717 -2 -718 -3 -3 -2327 -2 -2328 720 0 720 0 0 944 0 944 788
-1 787 -2 2 -940 2 -940 720 -3 721 -2 0 607 0 607 63 -124 c149 -294 334
-523 579 -713 48 -37 89 -67 93 -67 4 0 25 -13 48 -29 117 -80 362 -191 512
-232 78 -22 264 -65 310 -73 188 -32 612 -61 755 -52 41 3 122 8 180 11 425
24 853 158 1155 360 294 197 505 434 664 745 130 254 208 531 253 895 20 170
17 715 -6 875 -52 372 -149 665 -308 930 -214 357 -568 652 -968 808 -41 16
-84 33 -95 37 -11 4 -24 9 -30 11 -5 1 -67 18 -137 37 -145 41 -316 71 -502
90 -152 16 -494 19 -651 6z m525 -1104 c101 -19 232 -73 315 -128 124 -83 243
-226 307 -368 53 -116 101 -313 115 -472 16 -165 9 -560 -12 -722 -23 -186
-94 -438 -139 -495 -6 -8 -20 -32 -31 -54 -29 -56 -139 -171 -218 -226 -81
-58 -183 -102 -304 -132 -116 -29 -391 -32 -493 -5 -36 10 -72 19 -80 21 -46
12 -130 50 -188 85 -310 185 -455 540 -467 1141 -11 528 83 880 294 1103 124
132 305 227 494 262 91 17 292 12 407 -10z"/>
</g>
</svg>
